<svg width="512" height="512" viewBox="0 0 512 512" fill="none" xmlns="http://www.w3.org/2000/svg">
<mask id="mask0_24_2" style="mask-type:alpha" maskUnits="userSpaceOnUse" x="21" y="0" width="471" height="512">
<path d="M21 22C21 9.84974 30.8497 0 43 0H469.815C481.965 0 491.815 9.84974 491.815 22V490C491.815 502.15 481.965 512 469.815 512H41C29.9543 512 21 503.046 21 492V22Z" fill="#D9D9D9"/>
</mask>
<g mask="url(#mask0_24_2)">
<g filter="url(#filter0_i_24_2)">
<path d="M21 263.514V512L303.6 135.2C306.999 130.667 312.334 128 318 128H472.333C482.274 128 490.333 119.941 490.333 110V18C490.333 8.05887 482.274 0 472.333 0H221.62C215.946 0 210.604 2.67558 207.206 7.21958L25.3821 250.338C22.5373 254.142 21 258.764 21 263.514Z" fill="url(#paint0_linear_24_2)"/>
<path fill-rule="evenodd" clip-rule="evenodd" d="M161 341.334H266C272.882 341.334 279.365 338.114 283.523 332.636L149 512.001H21L169.5 314L156.2 331.734C153.233 335.689 156.056 341.334 161 341.334Z" fill="url(#paint1_linear_24_2)"/>
<path d="M149 512L335.6 263.2C338.999 258.667 344.334 256 350 256H472.333C482.274 256 490.333 264.059 490.333 274V334C490.333 338.76 488.789 343.392 485.933 347.2L367.733 504.8C364.334 509.332 358.999 512 353.333 512H149Z" fill="url(#paint2_linear_24_2)"/>
</g>
</g>
<defs>
<filter id="filter0_i_24_2" x="21" y="0" width="476.333" height="519.001" filterUnits="userSpaceOnUse" color-interpolation-filters="sRGB">
<feFlood flood-opacity="0" result="BackgroundImageFix"/>
<feBlend mode="normal" in="SourceGraphic" in2="BackgroundImageFix" result="shape"/>
<feColorMatrix in="SourceAlpha" type="matrix" values="0 0 0 0 0 0 0 0 0 0 0 0 0 0 0 0 0 0 127 0" result="hardAlpha"/>
<feOffset dx="7" dy="7"/>
<feGaussianBlur stdDeviation="3.5"/>
<feComposite in2="hardAlpha" operator="arithmetic" k2="-1" k3="1"/>
<feColorMatrix type="matrix" values="0 0 0 0 0 0 0 0 0 0 0 0 0 0 0 0 0 0 0.25 0"/>
<feBlend mode="normal" in2="shape" result="effect1_innerShadow_24_2"/>
</filter>
<linearGradient id="paint0_linear_24_2" x1="366.284" y1="-16" x2="71.1728" y2="359.309" gradientUnits="userSpaceOnUse">
<stop stop-color="#38BDF8"/>
<stop offset="0.996494" stop-color="#67E8F9"/>
</linearGradient>
<linearGradient id="paint1_linear_24_2" x1="267.026" y1="365.31" x2="3.80225" y2="466.046" gradientUnits="userSpaceOnUse">
<stop stop-color="#67E8F9"/>
<stop offset="1" stop-color="#38BDF8"/>
</linearGradient>
<linearGradient id="paint2_linear_24_2" x1="451.42" y1="256" x2="257.049" y2="512" gradientUnits="userSpaceOnUse">
<stop stop-color="#38BDF8"/>
<stop offset="1" stop-color="#67E8F9"/>
</linearGradient>
</defs>
</svg>
